<mxfile host="app.diagrams.net" agent="Mozilla/5.0 (X11; Linux x86_64) AppleWebKit/537.36 (KHTML, like Gecko) Chrome/140.0.0.0 Safari/537.36" version="28.2.5">
  <diagram name="Page-1" id="M5ITPn7KAUv39FcpvYlP">
    <mxGraphModel dx="2528" dy="2006" grid="1" gridSize="10" guides="1" tooltips="1" connect="1" arrows="1" fold="1" page="1" pageScale="1" pageWidth="850" pageHeight="1100" math="0" shadow="0">
      <root>
        <mxCell id="0" />
        <mxCell id="1" parent="0" />
        <mxCell id="yXIKE25COpGdXmbMUSow-2" value="Whitebox" style="rounded=0;whiteSpace=wrap;html=1;" parent="1" vertex="1">
          <mxGeometry x="210" y="-940" width="50" height="1160" as="geometry" />
        </mxCell>
        <mxCell id="yXIKE25COpGdXmbMUSow-71" value="" style="edgeStyle=orthogonalEdgeStyle;rounded=0;orthogonalLoop=1;jettySize=auto;html=1;" parent="1" source="yXIKE25COpGdXmbMUSow-3" target="yXIKE25COpGdXmbMUSow-69" edge="1">
          <mxGeometry relative="1" as="geometry" />
        </mxCell>
        <mxCell id="yXIKE25COpGdXmbMUSow-3" value="Top level Domain/Wildcard" style="rounded=0;whiteSpace=wrap;html=1;" parent="1" vertex="1">
          <mxGeometry x="80" y="620" width="120" height="60" as="geometry" />
        </mxCell>
        <mxCell id="yXIKE25COpGdXmbMUSow-4" value="Domains/subdomains" style="rounded=0;whiteSpace=wrap;html=1;" parent="1" vertex="1">
          <mxGeometry x="540" y="550" width="140" height="60" as="geometry" />
        </mxCell>
        <mxCell id="yXIKE25COpGdXmbMUSow-23" value="" style="group" parent="1" vertex="1" connectable="0">
          <mxGeometry x="270" y="-670" width="321" height="290" as="geometry" />
        </mxCell>
        <mxCell id="yXIKE25COpGdXmbMUSow-8" value="Code Review" style="swimlane;fontStyle=0;childLayout=stackLayout;horizontal=1;startSize=30;horizontalStack=0;resizeParent=1;resizeParentMax=0;resizeLast=0;collapsible=1;marginBottom=0;whiteSpace=wrap;html=1;" parent="yXIKE25COpGdXmbMUSow-23" vertex="1">
          <mxGeometry y="100" width="140" height="150" as="geometry" />
        </mxCell>
        <mxCell id="yXIKE25COpGdXmbMUSow-9" value="Audit codebase" style="text;strokeColor=none;fillColor=none;align=left;verticalAlign=middle;spacingLeft=4;spacingRight=4;overflow=hidden;points=[[0,0.5],[1,0.5]];portConstraint=eastwest;rotatable=0;whiteSpace=wrap;html=1;" parent="yXIKE25COpGdXmbMUSow-8" vertex="1">
          <mxGeometry y="30" width="140" height="30" as="geometry" />
        </mxCell>
        <mxCell id="yXIKE25COpGdXmbMUSow-17" value="Grep vuln pattern" style="text;strokeColor=none;fillColor=none;align=left;verticalAlign=middle;spacingLeft=4;spacingRight=4;overflow=hidden;points=[[0,0.5],[1,0.5]];portConstraint=eastwest;rotatable=0;whiteSpace=wrap;html=1;" parent="yXIKE25COpGdXmbMUSow-8" vertex="1">
          <mxGeometry y="60" width="140" height="30" as="geometry" />
        </mxCell>
        <mxCell id="yXIKE25COpGdXmbMUSow-13" value="Threat model" style="text;strokeColor=none;fillColor=none;align=left;verticalAlign=middle;spacingLeft=4;spacingRight=4;overflow=hidden;points=[[0,0.5],[1,0.5]];portConstraint=eastwest;rotatable=0;whiteSpace=wrap;html=1;" parent="yXIKE25COpGdXmbMUSow-8" vertex="1">
          <mxGeometry y="90" width="140" height="30" as="geometry" />
        </mxCell>
        <mxCell id="yXIKE25COpGdXmbMUSow-11" value="Source and sink" style="text;strokeColor=none;fillColor=none;align=left;verticalAlign=middle;spacingLeft=4;spacingRight=4;overflow=hidden;points=[[0,0.5],[1,0.5]];portConstraint=eastwest;rotatable=0;whiteSpace=wrap;html=1;" parent="yXIKE25COpGdXmbMUSow-8" vertex="1">
          <mxGeometry y="120" width="140" height="30" as="geometry" />
        </mxCell>
        <mxCell id="yXIKE25COpGdXmbMUSow-15" value="Regex list build from github or tool like semgrep" style="rounded=0;whiteSpace=wrap;html=1;" parent="yXIKE25COpGdXmbMUSow-23" vertex="1">
          <mxGeometry x="200" y="30" width="120" height="60" as="geometry" />
        </mxCell>
        <mxCell id="yXIKE25COpGdXmbMUSow-16" value="Seperate the application into multiple function and layer and list all vulnerablity of each layer" style="rounded=0;whiteSpace=wrap;html=1;" parent="yXIKE25COpGdXmbMUSow-23" vertex="1">
          <mxGeometry x="200" y="120" width="120" height="90" as="geometry" />
        </mxCell>
        <mxCell id="yXIKE25COpGdXmbMUSow-18" value="Navigate through the flow from the vulneability code pattern to user input" style="rounded=0;whiteSpace=wrap;html=1;" parent="yXIKE25COpGdXmbMUSow-23" vertex="1">
          <mxGeometry x="200" y="230" width="120" height="60" as="geometry" />
        </mxCell>
        <mxCell id="yXIKE25COpGdXmbMUSow-20" value="" style="endArrow=classic;html=1;rounded=0;exitX=1;exitY=0.5;exitDx=0;exitDy=0;entryX=0;entryY=0.5;entryDx=0;entryDy=0;" parent="yXIKE25COpGdXmbMUSow-23" source="yXIKE25COpGdXmbMUSow-13" target="yXIKE25COpGdXmbMUSow-16" edge="1">
          <mxGeometry width="50" height="50" relative="1" as="geometry">
            <mxPoint x="280" y="320" as="sourcePoint" />
            <mxPoint x="330" y="270" as="targetPoint" />
          </mxGeometry>
        </mxCell>
        <mxCell id="yXIKE25COpGdXmbMUSow-21" value="" style="endArrow=classic;html=1;rounded=0;exitX=1;exitY=0.5;exitDx=0;exitDy=0;entryX=0;entryY=0.5;entryDx=0;entryDy=0;" parent="yXIKE25COpGdXmbMUSow-23" source="yXIKE25COpGdXmbMUSow-17" target="yXIKE25COpGdXmbMUSow-15" edge="1">
          <mxGeometry width="50" height="50" relative="1" as="geometry">
            <mxPoint x="280" y="320" as="sourcePoint" />
            <mxPoint x="330" y="270" as="targetPoint" />
          </mxGeometry>
        </mxCell>
        <mxCell id="yXIKE25COpGdXmbMUSow-22" value="" style="endArrow=classic;html=1;rounded=0;exitX=1;exitY=0.5;exitDx=0;exitDy=0;entryX=0;entryY=0.5;entryDx=0;entryDy=0;" parent="yXIKE25COpGdXmbMUSow-23" source="yXIKE25COpGdXmbMUSow-11" target="yXIKE25COpGdXmbMUSow-18" edge="1">
          <mxGeometry width="50" height="50" relative="1" as="geometry">
            <mxPoint x="280" y="320" as="sourcePoint" />
            <mxPoint x="330" y="270" as="targetPoint" />
          </mxGeometry>
        </mxCell>
        <mxCell id="yXIKE25COpGdXmbMUSow-24" value="Recon" style="swimlane;fontStyle=0;childLayout=stackLayout;horizontal=1;startSize=30;horizontalStack=0;resizeParent=1;resizeParentMax=0;resizeLast=0;collapsible=1;marginBottom=0;whiteSpace=wrap;html=1;" parent="1" vertex="1">
          <mxGeometry x="280" y="-940" width="140" height="180" as="geometry" />
        </mxCell>
        <mxCell id="yXIKE25COpGdXmbMUSow-25" value="Read documentation about framework" style="text;strokeColor=none;fillColor=none;align=left;verticalAlign=middle;spacingLeft=4;spacingRight=4;overflow=hidden;points=[[0,0.5],[1,0.5]];portConstraint=eastwest;rotatable=0;whiteSpace=wrap;html=1;" parent="yXIKE25COpGdXmbMUSow-24" vertex="1">
          <mxGeometry y="30" width="140" height="40" as="geometry" />
        </mxCell>
        <mxCell id="yXIKE25COpGdXmbMUSow-26" value="Watching youtube tutorial" style="text;strokeColor=none;fillColor=none;align=left;verticalAlign=middle;spacingLeft=4;spacingRight=4;overflow=hidden;points=[[0,0.5],[1,0.5]];portConstraint=eastwest;rotatable=0;whiteSpace=wrap;html=1;" parent="yXIKE25COpGdXmbMUSow-24" vertex="1">
          <mxGeometry y="70" width="140" height="30" as="geometry" />
        </mxCell>
        <mxCell id="yXIKE25COpGdXmbMUSow-27" value="Finding well-known guide for testing the framework" style="text;strokeColor=none;fillColor=none;align=left;verticalAlign=middle;spacingLeft=4;spacingRight=4;overflow=hidden;points=[[0,0.5],[1,0.5]];portConstraint=eastwest;rotatable=0;whiteSpace=wrap;html=1;" parent="yXIKE25COpGdXmbMUSow-24" vertex="1">
          <mxGeometry y="100" width="140" height="80" as="geometry" />
        </mxCell>
        <mxCell id="yXIKE25COpGdXmbMUSow-29" value="Local Test" style="swimlane;fontStyle=0;childLayout=stackLayout;horizontal=1;startSize=30;horizontalStack=0;resizeParent=1;resizeParentMax=0;resizeLast=0;collapsible=1;marginBottom=0;whiteSpace=wrap;html=1;" parent="1" vertex="1">
          <mxGeometry x="270" y="-180" width="140" height="150" as="geometry" />
        </mxCell>
        <mxCell id="yXIKE25COpGdXmbMUSow-30" value="Replicate the environment of the app instance and spun it up" style="text;strokeColor=none;fillColor=none;align=left;verticalAlign=middle;spacingLeft=4;spacingRight=4;overflow=hidden;points=[[0,0.5],[1,0.5]];portConstraint=eastwest;rotatable=0;whiteSpace=wrap;html=1;" parent="yXIKE25COpGdXmbMUSow-29" vertex="1">
          <mxGeometry y="30" width="140" height="50" as="geometry" />
        </mxCell>
        <mxCell id="yXIKE25COpGdXmbMUSow-31" value="Debugging, analyse and confirmation the vuln" style="text;strokeColor=none;fillColor=none;align=left;verticalAlign=middle;spacingLeft=4;spacingRight=4;overflow=hidden;points=[[0,0.5],[1,0.5]];portConstraint=eastwest;rotatable=0;whiteSpace=wrap;html=1;" parent="yXIKE25COpGdXmbMUSow-29" vertex="1">
          <mxGeometry y="80" width="140" height="40" as="geometry" />
        </mxCell>
        <mxCell id="yXIKE25COpGdXmbMUSow-32" value="Develope the exploitation script" style="text;strokeColor=none;fillColor=none;align=left;verticalAlign=middle;spacingLeft=4;spacingRight=4;overflow=hidden;points=[[0,0.5],[1,0.5]];portConstraint=eastwest;rotatable=0;whiteSpace=wrap;html=1;" parent="yXIKE25COpGdXmbMUSow-29" vertex="1">
          <mxGeometry y="120" width="140" height="30" as="geometry" />
        </mxCell>
        <mxCell id="yXIKE25COpGdXmbMUSow-34" value="" style="shape=flexArrow;endArrow=classic;html=1;rounded=0;exitX=0.464;exitY=1.038;exitDx=0;exitDy=0;exitPerimeter=0;entryX=0.5;entryY=0;entryDx=0;entryDy=0;" parent="1" source="yXIKE25COpGdXmbMUSow-27" target="yXIKE25COpGdXmbMUSow-35" edge="1">
          <mxGeometry width="50" height="50" relative="1" as="geometry">
            <mxPoint x="400" y="-660" as="sourcePoint" />
            <mxPoint x="350" y="-680" as="targetPoint" />
          </mxGeometry>
        </mxCell>
        <mxCell id="yXIKE25COpGdXmbMUSow-35" value="General knowledge about the framework and Programming language" style="rounded=1;whiteSpace=wrap;html=1;" parent="1" vertex="1">
          <mxGeometry x="280" y="-710" width="130" height="60" as="geometry" />
        </mxCell>
        <mxCell id="yXIKE25COpGdXmbMUSow-37" value="" style="shape=flexArrow;endArrow=classic;html=1;rounded=0;exitX=0.5;exitY=1;exitDx=0;exitDy=0;entryX=0.5;entryY=0;entryDx=0;entryDy=0;" parent="1" source="yXIKE25COpGdXmbMUSow-35" target="yXIKE25COpGdXmbMUSow-8" edge="1">
          <mxGeometry width="50" height="50" relative="1" as="geometry">
            <mxPoint x="400" y="-540" as="sourcePoint" />
            <mxPoint x="450" y="-590" as="targetPoint" />
          </mxGeometry>
        </mxCell>
        <mxCell id="yXIKE25COpGdXmbMUSow-38" value="Possible vulnerabilties pattern in code base" style="rounded=1;whiteSpace=wrap;html=1;" parent="1" vertex="1">
          <mxGeometry x="280" y="-320" width="120" height="60" as="geometry" />
        </mxCell>
        <mxCell id="yXIKE25COpGdXmbMUSow-39" value="" style="shape=flexArrow;endArrow=classic;html=1;rounded=0;exitX=0.479;exitY=1.033;exitDx=0;exitDy=0;exitPerimeter=0;entryX=0.5;entryY=0;entryDx=0;entryDy=0;" parent="1" source="yXIKE25COpGdXmbMUSow-11" target="yXIKE25COpGdXmbMUSow-38" edge="1">
          <mxGeometry width="50" height="50" relative="1" as="geometry">
            <mxPoint x="400" y="-410" as="sourcePoint" />
            <mxPoint x="450" y="-460" as="targetPoint" />
          </mxGeometry>
        </mxCell>
        <mxCell id="yXIKE25COpGdXmbMUSow-40" value="" style="shape=flexArrow;endArrow=classic;html=1;rounded=0;exitX=0.5;exitY=1;exitDx=0;exitDy=0;entryX=0.5;entryY=0;entryDx=0;entryDy=0;" parent="1" source="yXIKE25COpGdXmbMUSow-38" target="yXIKE25COpGdXmbMUSow-29" edge="1">
          <mxGeometry width="50" height="50" relative="1" as="geometry">
            <mxPoint x="400" y="-220" as="sourcePoint" />
            <mxPoint x="450" y="-270" as="targetPoint" />
          </mxGeometry>
        </mxCell>
        <mxCell id="yXIKE25COpGdXmbMUSow-41" value="Docker skill" style="rounded=0;whiteSpace=wrap;html=1;" parent="1" vertex="1">
          <mxGeometry x="470" y="-210" width="120" height="60" as="geometry" />
        </mxCell>
        <mxCell id="yXIKE25COpGdXmbMUSow-42" value="Remote debugging with VScode" style="rounded=0;whiteSpace=wrap;html=1;" parent="1" vertex="1">
          <mxGeometry x="471" y="-135" width="120" height="60" as="geometry" />
        </mxCell>
        <mxCell id="yXIKE25COpGdXmbMUSow-43" value="" style="endArrow=classic;html=1;rounded=0;exitX=1;exitY=0.5;exitDx=0;exitDy=0;entryX=0;entryY=0.5;entryDx=0;entryDy=0;" parent="1" source="yXIKE25COpGdXmbMUSow-30" target="yXIKE25COpGdXmbMUSow-41" edge="1">
          <mxGeometry width="50" height="50" relative="1" as="geometry">
            <mxPoint x="400" y="-200" as="sourcePoint" />
            <mxPoint x="450" y="-250" as="targetPoint" />
          </mxGeometry>
        </mxCell>
        <mxCell id="yXIKE25COpGdXmbMUSow-44" value="" style="endArrow=classic;html=1;rounded=0;exitX=1;exitY=0.5;exitDx=0;exitDy=0;entryX=0;entryY=0.5;entryDx=0;entryDy=0;" parent="1" source="yXIKE25COpGdXmbMUSow-31" target="yXIKE25COpGdXmbMUSow-42" edge="1">
          <mxGeometry width="50" height="50" relative="1" as="geometry">
            <mxPoint x="400" y="-200" as="sourcePoint" />
            <mxPoint x="450" y="-250" as="targetPoint" />
          </mxGeometry>
        </mxCell>
        <mxCell id="yXIKE25COpGdXmbMUSow-46" value="A working PoC" style="rounded=1;whiteSpace=wrap;html=1;" parent="1" vertex="1">
          <mxGeometry x="280" y="30" width="120" height="60" as="geometry" />
        </mxCell>
        <mxCell id="yXIKE25COpGdXmbMUSow-47" value="" style="shape=flexArrow;endArrow=classic;html=1;rounded=0;exitX=0.5;exitY=1.067;exitDx=0;exitDy=0;exitPerimeter=0;entryX=0.5;entryY=0;entryDx=0;entryDy=0;" parent="1" source="yXIKE25COpGdXmbMUSow-32" target="yXIKE25COpGdXmbMUSow-46" edge="1">
          <mxGeometry width="50" height="50" relative="1" as="geometry">
            <mxPoint x="400" y="-80" as="sourcePoint" />
            <mxPoint x="450" y="-130" as="targetPoint" />
          </mxGeometry>
        </mxCell>
        <mxCell id="yXIKE25COpGdXmbMUSow-49" value="Try on Product" style="rhombus;whiteSpace=wrap;html=1;" parent="1" vertex="1">
          <mxGeometry x="620" y="20" width="160" height="80" as="geometry" />
        </mxCell>
        <mxCell id="yXIKE25COpGdXmbMUSow-51" value="" style="shape=flexArrow;endArrow=classic;html=1;rounded=0;exitX=1;exitY=0.5;exitDx=0;exitDy=0;entryX=0;entryY=0.5;entryDx=0;entryDy=0;" parent="1" source="yXIKE25COpGdXmbMUSow-46" target="yXIKE25COpGdXmbMUSow-49" edge="1">
          <mxGeometry width="50" height="50" relative="1" as="geometry">
            <mxPoint x="400" y="-80" as="sourcePoint" />
            <mxPoint x="450" y="-130" as="targetPoint" />
          </mxGeometry>
        </mxCell>
        <mxCell id="yXIKE25COpGdXmbMUSow-52" value="True" style="endArrow=classic;html=1;rounded=0;exitX=0.5;exitY=1;exitDx=0;exitDy=0;" parent="1" source="yXIKE25COpGdXmbMUSow-49" edge="1">
          <mxGeometry width="50" height="50" relative="1" as="geometry">
            <mxPoint x="400" y="-80" as="sourcePoint" />
            <mxPoint x="700" y="150" as="targetPoint" />
          </mxGeometry>
        </mxCell>
        <mxCell id="yXIKE25COpGdXmbMUSow-53" value="Report" style="rounded=0;whiteSpace=wrap;html=1;" parent="1" vertex="1">
          <mxGeometry x="640" y="150" width="120" height="60" as="geometry" />
        </mxCell>
        <mxCell id="yXIKE25COpGdXmbMUSow-54" value="False" style="endArrow=classic;html=1;rounded=0;exitX=0.5;exitY=0;exitDx=0;exitDy=0;" parent="1" source="yXIKE25COpGdXmbMUSow-49" target="yXIKE25COpGdXmbMUSow-55" edge="1">
          <mxGeometry width="50" height="50" relative="1" as="geometry">
            <mxPoint x="400" y="-80" as="sourcePoint" />
            <mxPoint x="700" y="-150" as="targetPoint" />
          </mxGeometry>
        </mxCell>
        <mxCell id="yXIKE25COpGdXmbMUSow-56" value="" style="edgeStyle=orthogonalEdgeStyle;rounded=0;orthogonalLoop=1;jettySize=auto;html=1;" parent="1" source="yXIKE25COpGdXmbMUSow-55" target="yXIKE25COpGdXmbMUSow-42" edge="1">
          <mxGeometry relative="1" as="geometry" />
        </mxCell>
        <mxCell id="yXIKE25COpGdXmbMUSow-55" value="Figure out the reason" style="rounded=0;whiteSpace=wrap;html=1;" parent="1" vertex="1">
          <mxGeometry x="640" y="-135" width="120" height="60" as="geometry" />
        </mxCell>
        <mxCell id="yXIKE25COpGdXmbMUSow-64" value="" style="group" parent="1" vertex="1" connectable="0">
          <mxGeometry x="-110" y="530" width="120" height="120" as="geometry" />
        </mxCell>
        <mxCell id="yXIKE25COpGdXmbMUSow-62" value="Company" style="rounded=0;whiteSpace=wrap;html=1;" parent="yXIKE25COpGdXmbMUSow-64" vertex="1">
          <mxGeometry width="120" height="60" as="geometry" />
        </mxCell>
        <mxCell id="yXIKE25COpGdXmbMUSow-63" value="Aquisition" style="rounded=0;whiteSpace=wrap;html=1;" parent="yXIKE25COpGdXmbMUSow-64" vertex="1">
          <mxGeometry y="60" width="120" height="60" as="geometry" />
        </mxCell>
        <mxCell id="yXIKE25COpGdXmbMUSow-67" value="" style="edgeStyle=orthogonalEdgeStyle;rounded=0;orthogonalLoop=1;jettySize=auto;html=1;entryX=0;entryY=0.5;entryDx=0;entryDy=0;" parent="1" source="yXIKE25COpGdXmbMUSow-65" target="yXIKE25COpGdXmbMUSow-66" edge="1">
          <mxGeometry relative="1" as="geometry" />
        </mxCell>
        <mxCell id="yXIKE25COpGdXmbMUSow-65" value="ASN" style="rounded=0;whiteSpace=wrap;html=1;" parent="1" vertex="1">
          <mxGeometry x="80" y="520" width="120" height="60" as="geometry" />
        </mxCell>
        <mxCell id="yXIKE25COpGdXmbMUSow-66" value="CIDR" style="rounded=0;whiteSpace=wrap;html=1;" parent="1" vertex="1">
          <mxGeometry x="290" y="420" width="120" height="60" as="geometry" />
        </mxCell>
        <mxCell id="yXIKE25COpGdXmbMUSow-69" value="arSon framework" style="rounded=0;whiteSpace=wrap;html=1;" parent="1" vertex="1">
          <mxGeometry x="280" y="570" width="120" height="60" as="geometry" />
        </mxCell>
        <mxCell id="yXIKE25COpGdXmbMUSow-70" value="" style="endArrow=classic;html=1;rounded=0;exitX=1;exitY=0.5;exitDx=0;exitDy=0;entryX=0;entryY=0.5;entryDx=0;entryDy=0;" parent="1" source="yXIKE25COpGdXmbMUSow-65" target="yXIKE25COpGdXmbMUSow-69" edge="1">
          <mxGeometry width="50" height="50" relative="1" as="geometry">
            <mxPoint x="490" y="650" as="sourcePoint" />
            <mxPoint x="540" y="600" as="targetPoint" />
          </mxGeometry>
        </mxCell>
        <mxCell id="yXIKE25COpGdXmbMUSow-72" value="" style="endArrow=classic;html=1;rounded=0;entryX=0;entryY=0.5;entryDx=0;entryDy=0;" parent="1" target="yXIKE25COpGdXmbMUSow-65" edge="1">
          <mxGeometry width="50" height="50" relative="1" as="geometry">
            <mxPoint x="10" y="590" as="sourcePoint" />
            <mxPoint x="540" y="600" as="targetPoint" />
          </mxGeometry>
        </mxCell>
        <mxCell id="yXIKE25COpGdXmbMUSow-73" value="" style="endArrow=classic;html=1;rounded=0;exitX=1;exitY=1;exitDx=0;exitDy=0;entryX=0;entryY=0.5;entryDx=0;entryDy=0;" parent="1" source="yXIKE25COpGdXmbMUSow-62" target="yXIKE25COpGdXmbMUSow-3" edge="1">
          <mxGeometry width="50" height="50" relative="1" as="geometry">
            <mxPoint x="490" y="650" as="sourcePoint" />
            <mxPoint x="540" y="600" as="targetPoint" />
          </mxGeometry>
        </mxCell>
        <mxCell id="yXIKE25COpGdXmbMUSow-74" value="" style="endArrow=classic;html=1;rounded=0;exitX=0.986;exitY=1;exitDx=0;exitDy=0;exitPerimeter=0;" parent="1" source="yXIKE25COpGdXmbMUSow-11" target="yXIKE25COpGdXmbMUSow-75" edge="1">
          <mxGeometry width="50" height="50" relative="1" as="geometry">
            <mxPoint x="390" y="-490" as="sourcePoint" />
            <mxPoint x="460" y="-320" as="targetPoint" />
          </mxGeometry>
        </mxCell>
        <mxCell id="yXIKE25COpGdXmbMUSow-75" value="Truffle hog on client side javascript to get key and secret" style="rounded=0;whiteSpace=wrap;html=1;" parent="1" vertex="1">
          <mxGeometry x="460" y="-330" width="120" height="60" as="geometry" />
        </mxCell>
        <mxCell id="yXIKE25COpGdXmbMUSow-76" value="Common test on host" style="rounded=0;whiteSpace=wrap;html=1;" parent="1" vertex="1">
          <mxGeometry x="471" y="330" width="120" height="60" as="geometry" />
        </mxCell>
        <mxCell id="yXIKE25COpGdXmbMUSow-77" value="" style="endArrow=classic;html=1;rounded=0;exitX=1;exitY=0.5;exitDx=0;exitDy=0;" parent="1" source="yXIKE25COpGdXmbMUSow-66" edge="1">
          <mxGeometry width="50" height="50" relative="1" as="geometry">
            <mxPoint x="390" y="590" as="sourcePoint" />
            <mxPoint x="470" y="360" as="targetPoint" />
          </mxGeometry>
        </mxCell>
        <mxCell id="yXIKE25COpGdXmbMUSow-78" value="Reverse whois" style="endArrow=classic;html=1;rounded=0;exitX=1;exitY=0.5;exitDx=0;exitDy=0;entryX=0;entryY=0.5;entryDx=0;entryDy=0;" parent="1" source="yXIKE25COpGdXmbMUSow-66" target="yXIKE25COpGdXmbMUSow-4" edge="1">
          <mxGeometry width="50" height="50" relative="1" as="geometry">
            <mxPoint x="390" y="590" as="sourcePoint" />
            <mxPoint x="440" y="540" as="targetPoint" />
          </mxGeometry>
        </mxCell>
        <mxCell id="yXIKE25COpGdXmbMUSow-79" value="" style="endArrow=classic;html=1;rounded=0;exitX=1;exitY=0.5;exitDx=0;exitDy=0;entryX=0;entryY=0.5;entryDx=0;entryDy=0;" parent="1" source="yXIKE25COpGdXmbMUSow-69" target="yXIKE25COpGdXmbMUSow-4" edge="1">
          <mxGeometry width="50" height="50" relative="1" as="geometry">
            <mxPoint x="390" y="590" as="sourcePoint" />
            <mxPoint x="440" y="540" as="targetPoint" />
          </mxGeometry>
        </mxCell>
        <mxCell id="yXIKE25COpGdXmbMUSow-95" value="" style="edgeStyle=orthogonalEdgeStyle;rounded=0;orthogonalLoop=1;jettySize=auto;html=1;exitX=0.4;exitY=0.1;exitDx=0;exitDy=0;exitPerimeter=0;" parent="1" source="yXIKE25COpGdXmbMUSow-80" target="yXIKE25COpGdXmbMUSow-94" edge="1">
          <mxGeometry relative="1" as="geometry" />
        </mxCell>
        <mxCell id="yXIKE25COpGdXmbMUSow-98" value="Check public open config&lt;div&gt;&lt;br&gt;&lt;/div&gt;" style="edgeStyle=orthogonalEdgeStyle;rounded=0;orthogonalLoop=1;jettySize=auto;html=1;" parent="1" source="yXIKE25COpGdXmbMUSow-80" target="yXIKE25COpGdXmbMUSow-97" edge="1">
          <mxGeometry relative="1" as="geometry" />
        </mxCell>
        <mxCell id="yXIKE25COpGdXmbMUSow-80" value="Cloud asset(ars0n framework)" style="ellipse;shape=cloud;whiteSpace=wrap;html=1;" parent="1" vertex="1">
          <mxGeometry x="730" y="520" width="150" height="100" as="geometry" />
        </mxCell>
        <mxCell id="yXIKE25COpGdXmbMUSow-81" value="" style="endArrow=classic;html=1;rounded=0;exitX=1;exitY=0.5;exitDx=0;exitDy=0;entryX=0.087;entryY=0.65;entryDx=0;entryDy=0;entryPerimeter=0;" parent="1" source="yXIKE25COpGdXmbMUSow-4" target="yXIKE25COpGdXmbMUSow-80" edge="1">
          <mxGeometry width="50" height="50" relative="1" as="geometry">
            <mxPoint x="390" y="590" as="sourcePoint" />
            <mxPoint x="440" y="540" as="targetPoint" />
          </mxGeometry>
        </mxCell>
        <mxCell id="yXIKE25COpGdXmbMUSow-84" value="" style="edgeStyle=orthogonalEdgeStyle;rounded=0;orthogonalLoop=1;jettySize=auto;html=1;" parent="1" source="yXIKE25COpGdXmbMUSow-82" target="yXIKE25COpGdXmbMUSow-83" edge="1">
          <mxGeometry relative="1" as="geometry" />
        </mxCell>
        <mxCell id="yXIKE25COpGdXmbMUSow-82" value="CDN" style="rounded=0;whiteSpace=wrap;html=1;" parent="1" vertex="1">
          <mxGeometry x="880" y="360" width="120" height="60" as="geometry" />
        </mxCell>
        <mxCell id="yXIKE25COpGdXmbMUSow-93" value="False" style="edgeStyle=orthogonalEdgeStyle;rounded=0;orthogonalLoop=1;jettySize=auto;html=1;" parent="1" source="yXIKE25COpGdXmbMUSow-83" target="yXIKE25COpGdXmbMUSow-92" edge="1">
          <mxGeometry relative="1" as="geometry" />
        </mxCell>
        <mxCell id="yXIKE25COpGdXmbMUSow-83" value="cacheching or not" style="rhombus;whiteSpace=wrap;html=1;" parent="1" vertex="1">
          <mxGeometry x="1030" y="350" width="130" height="80" as="geometry" />
        </mxCell>
        <mxCell id="yXIKE25COpGdXmbMUSow-85" value="" style="endArrow=classic;html=1;rounded=0;exitX=0.687;exitY=0.18;exitDx=0;exitDy=0;exitPerimeter=0;entryX=0;entryY=0.5;entryDx=0;entryDy=0;" parent="1" source="yXIKE25COpGdXmbMUSow-80" target="yXIKE25COpGdXmbMUSow-82" edge="1">
          <mxGeometry width="50" height="50" relative="1" as="geometry">
            <mxPoint x="570" y="590" as="sourcePoint" />
            <mxPoint x="620" y="540" as="targetPoint" />
          </mxGeometry>
        </mxCell>
        <mxCell id="yXIKE25COpGdXmbMUSow-86" value="true" style="endArrow=classic;html=1;rounded=0;exitX=0.5;exitY=0;exitDx=0;exitDy=0;" parent="1" source="yXIKE25COpGdXmbMUSow-83" edge="1">
          <mxGeometry width="50" height="50" relative="1" as="geometry">
            <mxPoint x="950" y="590" as="sourcePoint" />
            <mxPoint x="1095" y="270" as="targetPoint" />
          </mxGeometry>
        </mxCell>
        <mxCell id="yXIKE25COpGdXmbMUSow-88" value="Web cache attack" style="swimlane;fontStyle=0;childLayout=stackLayout;horizontal=1;startSize=30;horizontalStack=0;resizeParent=1;resizeParentMax=0;resizeLast=0;collapsible=1;marginBottom=0;whiteSpace=wrap;html=1;" parent="1" vertex="1">
          <mxGeometry x="1030" y="180" width="140" height="90" as="geometry" />
        </mxCell>
        <mxCell id="yXIKE25COpGdXmbMUSow-89" value="Web cache posioning" style="text;strokeColor=none;fillColor=none;align=left;verticalAlign=middle;spacingLeft=4;spacingRight=4;overflow=hidden;points=[[0,0.5],[1,0.5]];portConstraint=eastwest;rotatable=0;whiteSpace=wrap;html=1;" parent="yXIKE25COpGdXmbMUSow-88" vertex="1">
          <mxGeometry y="30" width="140" height="30" as="geometry" />
        </mxCell>
        <mxCell id="yXIKE25COpGdXmbMUSow-90" value="Web cache deception" style="text;strokeColor=none;fillColor=none;align=left;verticalAlign=middle;spacingLeft=4;spacingRight=4;overflow=hidden;points=[[0,0.5],[1,0.5]];portConstraint=eastwest;rotatable=0;whiteSpace=wrap;html=1;" parent="yXIKE25COpGdXmbMUSow-88" vertex="1">
          <mxGeometry y="60" width="140" height="30" as="geometry" />
        </mxCell>
        <mxCell id="yXIKE25COpGdXmbMUSow-92" value="Forget it" style="whiteSpace=wrap;html=1;" parent="1" vertex="1">
          <mxGeometry x="1245" y="360" width="120" height="60" as="geometry" />
        </mxCell>
        <mxCell id="yXIKE25COpGdXmbMUSow-96" value="" style="edgeStyle=orthogonalEdgeStyle;rounded=0;orthogonalLoop=1;jettySize=auto;html=1;" parent="1" source="yXIKE25COpGdXmbMUSow-94" target="yXIKE25COpGdXmbMUSow-76" edge="1">
          <mxGeometry relative="1" as="geometry" />
        </mxCell>
        <mxCell id="yXIKE25COpGdXmbMUSow-94" value="Computing unit" style="rounded=0;whiteSpace=wrap;html=1;" parent="1" vertex="1">
          <mxGeometry x="680" y="330" width="120" height="60" as="geometry" />
        </mxCell>
        <mxCell id="yXIKE25COpGdXmbMUSow-97" value="Storage(S3/GS)" style="rounded=0;whiteSpace=wrap;html=1;" parent="1" vertex="1">
          <mxGeometry x="1120" y="540" width="120" height="60" as="geometry" />
        </mxCell>
        <mxCell id="yXIKE25COpGdXmbMUSow-99" value="Common HTTP port" style="endArrow=classic;html=1;rounded=0;exitX=0.5;exitY=1;exitDx=0;exitDy=0;" parent="1" source="yXIKE25COpGdXmbMUSow-4" target="yXIKE25COpGdXmbMUSow-100" edge="1">
          <mxGeometry width="50" height="50" relative="1" as="geometry">
            <mxPoint x="570" y="470" as="sourcePoint" />
            <mxPoint x="680" y="750" as="targetPoint" />
          </mxGeometry>
        </mxCell>
        <mxCell id="yXIKE25COpGdXmbMUSow-100" value="Web Application" style="rounded=0;whiteSpace=wrap;html=1;" parent="1" vertex="1">
          <mxGeometry x="550" y="1020" width="120" height="60" as="geometry" />
        </mxCell>
        <mxCell id="yXIKE25COpGdXmbMUSow-102" value="Infomation gathering" style="swimlane;fontStyle=0;childLayout=stackLayout;horizontal=1;startSize=30;horizontalStack=0;resizeParent=1;resizeParentMax=0;resizeLast=0;collapsible=1;marginBottom=0;whiteSpace=wrap;html=1;" parent="1" vertex="1">
          <mxGeometry x="850" y="700" width="140" height="120" as="geometry" />
        </mxCell>
        <mxCell id="yXIKE25COpGdXmbMUSow-103" value="Enumeration" style="text;strokeColor=none;fillColor=none;align=left;verticalAlign=middle;spacingLeft=4;spacingRight=4;overflow=hidden;points=[[0,0.5],[1,0.5]];portConstraint=eastwest;rotatable=0;whiteSpace=wrap;html=1;" parent="yXIKE25COpGdXmbMUSow-102" vertex="1">
          <mxGeometry y="30" width="140" height="30" as="geometry" />
        </mxCell>
        <mxCell id="yXIKE25COpGdXmbMUSow-105" value="Detect infra infront web app" style="text;strokeColor=none;fillColor=none;align=left;verticalAlign=middle;spacingLeft=4;spacingRight=4;overflow=hidden;points=[[0,0.5],[1,0.5]];portConstraint=eastwest;rotatable=0;whiteSpace=wrap;html=1;" parent="yXIKE25COpGdXmbMUSow-102" vertex="1">
          <mxGeometry y="60" width="140" height="30" as="geometry" />
        </mxCell>
        <mxCell id="yXIKE25COpGdXmbMUSow-110" value="Content discovery" style="text;strokeColor=none;fillColor=none;align=left;verticalAlign=middle;spacingLeft=4;spacingRight=4;overflow=hidden;points=[[0,0.5],[1,0.5]];portConstraint=eastwest;rotatable=0;whiteSpace=wrap;html=1;" parent="yXIKE25COpGdXmbMUSow-102" vertex="1">
          <mxGeometry y="90" width="140" height="30" as="geometry" />
        </mxCell>
        <mxCell id="yXIKE25COpGdXmbMUSow-108" value="Nmap script scan for HTTP on Web port" style="rounded=0;whiteSpace=wrap;html=1;" parent="1" vertex="1">
          <mxGeometry x="1060" y="630" width="120" height="60" as="geometry" />
        </mxCell>
        <mxCell id="yXIKE25COpGdXmbMUSow-109" value="" style="endArrow=classic;html=1;rounded=0;exitX=1;exitY=0.5;exitDx=0;exitDy=0;entryX=0;entryY=0.5;entryDx=0;entryDy=0;" parent="1" source="yXIKE25COpGdXmbMUSow-103" target="yXIKE25COpGdXmbMUSow-108" edge="1">
          <mxGeometry width="50" height="50" relative="1" as="geometry">
            <mxPoint x="570" y="770" as="sourcePoint" />
            <mxPoint x="620" y="720" as="targetPoint" />
          </mxGeometry>
        </mxCell>
        <mxCell id="yXIKE25COpGdXmbMUSow-111" value="Using wafwoof, built with, wappalyzer" style="rounded=0;whiteSpace=wrap;html=1;" parent="1" vertex="1">
          <mxGeometry x="1060" y="690" width="120" height="60" as="geometry" />
        </mxCell>
        <mxCell id="yXIKE25COpGdXmbMUSow-112" value="" style="endArrow=classic;html=1;rounded=0;exitX=1;exitY=0.5;exitDx=0;exitDy=0;entryX=0;entryY=0.5;entryDx=0;entryDy=0;" parent="1" source="yXIKE25COpGdXmbMUSow-105" target="yXIKE25COpGdXmbMUSow-111" edge="1">
          <mxGeometry width="50" height="50" relative="1" as="geometry">
            <mxPoint x="570" y="770" as="sourcePoint" />
            <mxPoint x="620" y="720" as="targetPoint" />
          </mxGeometry>
        </mxCell>
        <mxCell id="yXIKE25COpGdXmbMUSow-119" value="Subdomain take over" style="shape=process;whiteSpace=wrap;html=1;backgroundOutline=1;" parent="1" vertex="1">
          <mxGeometry x="540" y="490" width="140" height="60" as="geometry" />
        </mxCell>
        <mxCell id="yXIKE25COpGdXmbMUSow-120" value="HTTP Smuggling" style="shape=process;whiteSpace=wrap;html=1;backgroundOutline=1;" parent="1" vertex="1">
          <mxGeometry x="880" y="300" width="120" height="60" as="geometry" />
        </mxCell>
        <mxCell id="yXIKE25COpGdXmbMUSow-128" value="" style="group" parent="1" vertex="1" connectable="0">
          <mxGeometry x="1250" y="670" width="350" height="400" as="geometry" />
        </mxCell>
        <mxCell id="yXIKE25COpGdXmbMUSow-122" value="U" style="group" parent="yXIKE25COpGdXmbMUSow-128" vertex="1" connectable="0">
          <mxGeometry width="140" height="400" as="geometry" />
        </mxCell>
        <mxCell id="yXIKE25COpGdXmbMUSow-114" value="Action" style="swimlane;fontStyle=0;childLayout=stackLayout;horizontal=1;startSize=30;horizontalStack=0;resizeParent=1;resizeParentMax=0;resizeLast=0;collapsible=1;marginBottom=0;whiteSpace=wrap;html=1;" parent="yXIKE25COpGdXmbMUSow-122" vertex="1">
          <mxGeometry y="80" width="140" height="460" as="geometry" />
        </mxCell>
        <mxCell id="yXIKE25COpGdXmbMUSow-115" value="&lt;span style=&quot;text-align: center;&quot;&gt;Manually explore, using as normal user with each role can have (Remember to loggin all endpoint using proxy)&lt;/span&gt;" style="text;strokeColor=none;fillColor=none;align=left;verticalAlign=middle;spacingLeft=4;spacingRight=4;overflow=hidden;points=[[0,0.5],[1,0.5]];portConstraint=eastwest;rotatable=0;whiteSpace=wrap;html=1;" parent="yXIKE25COpGdXmbMUSow-114" vertex="1">
          <mxGeometry y="30" width="140" height="100" as="geometry" />
        </mxCell>
        <mxCell id="yXIKE25COpGdXmbMUSow-116" value="Using spider or crawler" style="text;strokeColor=none;fillColor=none;align=left;verticalAlign=middle;spacingLeft=4;spacingRight=4;overflow=hidden;points=[[0,0.5],[1,0.5]];portConstraint=eastwest;rotatable=0;whiteSpace=wrap;html=1;" parent="yXIKE25COpGdXmbMUSow-114" vertex="1">
          <mxGeometry y="130" width="140" height="30" as="geometry" />
        </mxCell>
        <mxCell id="yXIKE25COpGdXmbMUSow-117" value="Fuzzing regular file robots.txt, sitemap.xml, .DS_Store, .git, well-known" style="text;strokeColor=none;fillColor=none;align=left;verticalAlign=middle;spacingLeft=4;spacingRight=4;overflow=hidden;points=[[0,0.5],[1,0.5]];portConstraint=eastwest;rotatable=0;whiteSpace=wrap;html=1;" parent="yXIKE25COpGdXmbMUSow-114" vertex="1">
          <mxGeometry y="160" width="140" height="90" as="geometry" />
        </mxCell>
        <mxCell id="yXIKE25COpGdXmbMUSow-118" value="Wayback url (give the general idea of tech stack and also get file already delete - 404)" style="text;strokeColor=none;fillColor=none;align=left;verticalAlign=middle;spacingLeft=4;spacingRight=4;overflow=hidden;points=[[0,0.5],[1,0.5]];portConstraint=eastwest;rotatable=0;whiteSpace=wrap;html=1;" parent="yXIKE25COpGdXmbMUSow-114" vertex="1">
          <mxGeometry y="250" width="140" height="70" as="geometry" />
        </mxCell>
        <mxCell id="yXIKE25COpGdXmbMUSow-126" value="Using google dorking to find cache" style="text;strokeColor=none;fillColor=none;align=left;verticalAlign=middle;spacingLeft=4;spacingRight=4;overflow=hidden;points=[[0,0.5],[1,0.5]];portConstraint=eastwest;rotatable=0;whiteSpace=wrap;html=1;" parent="yXIKE25COpGdXmbMUSow-114" vertex="1">
          <mxGeometry y="320" width="140" height="70" as="geometry" />
        </mxCell>
        <mxCell id="yXIKE25COpGdXmbMUSow-127" value="Change User-Angent to see different content" style="text;strokeColor=none;fillColor=none;align=left;verticalAlign=middle;spacingLeft=4;spacingRight=4;overflow=hidden;points=[[0,0.5],[1,0.5]];portConstraint=eastwest;rotatable=0;whiteSpace=wrap;html=1;" parent="yXIKE25COpGdXmbMUSow-114" vertex="1">
          <mxGeometry y="390" width="140" height="70" as="geometry" />
        </mxCell>
        <mxCell id="yXIKE25COpGdXmbMUSow-121" value="Information Disclosure through sensitive file (pdf,docx,txt ...)" style="shape=process;whiteSpace=wrap;html=1;backgroundOutline=1;" parent="yXIKE25COpGdXmbMUSow-122" vertex="1">
          <mxGeometry width="140" height="80" as="geometry" />
        </mxCell>
        <mxCell id="yXIKE25COpGdXmbMUSow-124" value="If file 404 use waybackmachine to read" style="whiteSpace=wrap;html=1;" parent="yXIKE25COpGdXmbMUSow-128" vertex="1">
          <mxGeometry x="230" y="10" width="120" height="60" as="geometry" />
        </mxCell>
        <mxCell id="yXIKE25COpGdXmbMUSow-125" value="" style="edgeStyle=orthogonalEdgeStyle;rounded=0;orthogonalLoop=1;jettySize=auto;html=1;" parent="yXIKE25COpGdXmbMUSow-128" source="yXIKE25COpGdXmbMUSow-121" target="yXIKE25COpGdXmbMUSow-124" edge="1">
          <mxGeometry relative="1" as="geometry" />
        </mxCell>
        <mxCell id="yXIKE25COpGdXmbMUSow-129" value="" style="endArrow=classic;html=1;rounded=0;exitX=1;exitY=0.5;exitDx=0;exitDy=0;entryX=0.021;entryY=0.043;entryDx=0;entryDy=0;entryPerimeter=0;" parent="1" source="yXIKE25COpGdXmbMUSow-110" target="yXIKE25COpGdXmbMUSow-114" edge="1">
          <mxGeometry width="50" height="50" relative="1" as="geometry">
            <mxPoint x="1220" y="820" as="sourcePoint" />
            <mxPoint x="1270" y="770" as="targetPoint" />
          </mxGeometry>
        </mxCell>
        <mxCell id="yXIKE25COpGdXmbMUSow-130" value="" style="endArrow=classic;html=1;rounded=0;exitX=1;exitY=0.5;exitDx=0;exitDy=0;entryX=0.021;entryY=0.108;entryDx=0;entryDy=0;entryPerimeter=0;" parent="1" source="yXIKE25COpGdXmbMUSow-100" target="yXIKE25COpGdXmbMUSow-102" edge="1">
          <mxGeometry width="50" height="50" relative="1" as="geometry">
            <mxPoint x="800" y="940" as="sourcePoint" />
            <mxPoint x="850" y="890" as="targetPoint" />
          </mxGeometry>
        </mxCell>
        <mxCell id="yXIKE25COpGdXmbMUSow-131" value="Configuration Management" style="swimlane;fontStyle=0;childLayout=stackLayout;horizontal=1;startSize=30;horizontalStack=0;resizeParent=1;resizeParentMax=0;resizeLast=0;collapsible=1;marginBottom=0;whiteSpace=wrap;html=1;" parent="1" vertex="1">
          <mxGeometry x="850" y="970" width="140" height="200" as="geometry" />
        </mxCell>
        <mxCell id="yXIKE25COpGdXmbMUSow-132" value="Checking backup file" style="text;strokeColor=none;fillColor=none;align=left;verticalAlign=middle;spacingLeft=4;spacingRight=4;overflow=hidden;points=[[0,0.5],[1,0.5]];portConstraint=eastwest;rotatable=0;whiteSpace=wrap;html=1;" parent="yXIKE25COpGdXmbMUSow-131" vertex="1">
          <mxGeometry y="30" width="140" height="30" as="geometry" />
        </mxCell>
        <mxCell id="yXIKE25COpGdXmbMUSow-133" value="Check HTTP method allowed and Cross Site Tracing" style="text;strokeColor=none;fillColor=none;align=left;verticalAlign=middle;spacingLeft=4;spacingRight=4;overflow=hidden;points=[[0,0.5],[1,0.5]];portConstraint=eastwest;rotatable=0;whiteSpace=wrap;html=1;" parent="yXIKE25COpGdXmbMUSow-131" vertex="1">
          <mxGeometry y="60" width="140" height="50" as="geometry" />
        </mxCell>
        <mxCell id="yXIKE25COpGdXmbMUSow-134" value="Check HTTP header relate to security, CSP, X-Frame-Options, HSTS" style="text;strokeColor=none;fillColor=none;align=left;verticalAlign=middle;spacingLeft=4;spacingRight=4;overflow=hidden;points=[[0,0.5],[1,0.5]];portConstraint=eastwest;rotatable=0;whiteSpace=wrap;html=1;" parent="yXIKE25COpGdXmbMUSow-131" vertex="1">
          <mxGeometry y="110" width="140" height="60" as="geometry" />
        </mxCell>
        <mxCell id="yXIKE25COpGdXmbMUSow-135" value="Client side code (Creds, API key)" style="text;strokeColor=none;fillColor=none;align=left;verticalAlign=middle;spacingLeft=4;spacingRight=4;overflow=hidden;points=[[0,0.5],[1,0.5]];portConstraint=eastwest;rotatable=0;whiteSpace=wrap;html=1;" parent="yXIKE25COpGdXmbMUSow-131" vertex="1">
          <mxGeometry y="170" width="140" height="30" as="geometry" />
        </mxCell>
        <mxCell id="yXIKE25COpGdXmbMUSow-136" value="" style="endArrow=classic;html=1;rounded=0;exitX=1;exitY=0.5;exitDx=0;exitDy=0;entryX=-0.007;entryY=0.11;entryDx=0;entryDy=0;entryPerimeter=0;" parent="1" source="yXIKE25COpGdXmbMUSow-100" target="yXIKE25COpGdXmbMUSow-131" edge="1">
          <mxGeometry width="50" height="50" relative="1" as="geometry">
            <mxPoint x="800" y="1000" as="sourcePoint" />
            <mxPoint x="850" y="950" as="targetPoint" />
          </mxGeometry>
        </mxCell>
        <mxCell id="yXIKE25COpGdXmbMUSow-138" value="Secure Transmission" style="swimlane;fontStyle=0;childLayout=stackLayout;horizontal=1;startSize=30;horizontalStack=0;resizeParent=1;resizeParentMax=0;resizeLast=0;collapsible=1;marginBottom=0;whiteSpace=wrap;html=1;" parent="1" vertex="1">
          <mxGeometry x="200" y="760" width="140" height="60" as="geometry" />
        </mxCell>
        <mxCell id="yXIKE25COpGdXmbMUSow-139" value="SSL/TLS version" style="text;strokeColor=none;fillColor=none;align=left;verticalAlign=middle;spacingLeft=4;spacingRight=4;overflow=hidden;points=[[0,0.5],[1,0.5]];portConstraint=eastwest;rotatable=0;whiteSpace=wrap;html=1;" parent="yXIKE25COpGdXmbMUSow-138" vertex="1">
          <mxGeometry y="30" width="140" height="30" as="geometry" />
        </mxCell>
        <mxCell id="yXIKE25COpGdXmbMUSow-142" value="Authentication" style="swimlane;fontStyle=0;childLayout=stackLayout;horizontal=1;startSize=30;horizontalStack=0;resizeParent=1;resizeParentMax=0;resizeLast=0;collapsible=1;marginBottom=0;whiteSpace=wrap;html=1;" parent="1" vertex="1">
          <mxGeometry x="220" y="920" width="140" height="280" as="geometry" />
        </mxCell>
        <mxCell id="yXIKE25COpGdXmbMUSow-143" value="User enum possibilities" style="text;strokeColor=none;fillColor=none;align=left;verticalAlign=middle;spacingLeft=4;spacingRight=4;overflow=hidden;points=[[0,0.5],[1,0.5]];portConstraint=eastwest;rotatable=0;whiteSpace=wrap;html=1;" parent="yXIKE25COpGdXmbMUSow-142" vertex="1">
          <mxGeometry y="30" width="140" height="30" as="geometry" />
        </mxCell>
        <mxCell id="yXIKE25COpGdXmbMUSow-144" value="Bruteforce protection" style="text;strokeColor=none;fillColor=none;align=left;verticalAlign=middle;spacingLeft=4;spacingRight=4;overflow=hidden;points=[[0,0.5],[1,0.5]];portConstraint=eastwest;rotatable=0;whiteSpace=wrap;html=1;" parent="yXIKE25COpGdXmbMUSow-142" vertex="1">
          <mxGeometry y="60" width="140" height="30" as="geometry" />
        </mxCell>
        <mxCell id="yXIKE25COpGdXmbMUSow-145" value="Remember me function" style="text;strokeColor=none;fillColor=none;align=left;verticalAlign=middle;spacingLeft=4;spacingRight=4;overflow=hidden;points=[[0,0.5],[1,0.5]];portConstraint=eastwest;rotatable=0;whiteSpace=wrap;html=1;" parent="yXIKE25COpGdXmbMUSow-142" vertex="1">
          <mxGeometry y="90" width="140" height="30" as="geometry" />
        </mxCell>
        <mxCell id="yXIKE25COpGdXmbMUSow-146" value="Password reset/forgot mechanic" style="text;strokeColor=none;fillColor=none;align=left;verticalAlign=middle;spacingLeft=4;spacingRight=4;overflow=hidden;points=[[0,0.5],[1,0.5]];portConstraint=eastwest;rotatable=0;whiteSpace=wrap;html=1;" parent="yXIKE25COpGdXmbMUSow-142" vertex="1">
          <mxGeometry y="120" width="140" height="50" as="geometry" />
        </mxCell>
        <mxCell id="yXIKE25COpGdXmbMUSow-147" value="Password change mechanic" style="text;strokeColor=none;fillColor=none;align=left;verticalAlign=middle;spacingLeft=4;spacingRight=4;overflow=hidden;points=[[0,0.5],[1,0.5]];portConstraint=eastwest;rotatable=0;whiteSpace=wrap;html=1;" parent="yXIKE25COpGdXmbMUSow-142" vertex="1">
          <mxGeometry y="170" width="140" height="30" as="geometry" />
        </mxCell>
        <mxCell id="yXIKE25COpGdXmbMUSow-148" value="MFA mechanic" style="text;strokeColor=none;fillColor=none;align=left;verticalAlign=middle;spacingLeft=4;spacingRight=4;overflow=hidden;points=[[0,0.5],[1,0.5]];portConstraint=eastwest;rotatable=0;whiteSpace=wrap;html=1;" parent="yXIKE25COpGdXmbMUSow-142" vertex="1">
          <mxGeometry y="200" width="140" height="40" as="geometry" />
        </mxCell>
        <mxCell id="yXIKE25COpGdXmbMUSow-149" value="Logout mechanic" style="text;strokeColor=none;fillColor=none;align=left;verticalAlign=middle;spacingLeft=4;spacingRight=4;overflow=hidden;points=[[0,0.5],[1,0.5]];portConstraint=eastwest;rotatable=0;whiteSpace=wrap;html=1;" parent="yXIKE25COpGdXmbMUSow-142" vertex="1">
          <mxGeometry y="240" width="140" height="40" as="geometry" />
        </mxCell>
        <mxCell id="yXIKE25COpGdXmbMUSow-150" value="" style="endArrow=classic;html=1;rounded=0;exitX=0;exitY=0.5;exitDx=0;exitDy=0;entryX=1;entryY=0.5;entryDx=0;entryDy=0;" parent="1" source="yXIKE25COpGdXmbMUSow-100" target="yXIKE25COpGdXmbMUSow-145" edge="1">
          <mxGeometry width="50" height="50" relative="1" as="geometry">
            <mxPoint x="800" y="1130" as="sourcePoint" />
            <mxPoint x="850" y="1080" as="targetPoint" />
          </mxGeometry>
        </mxCell>
        <mxCell id="yXIKE25COpGdXmbMUSow-151" value="Session management" style="swimlane;fontStyle=0;childLayout=stackLayout;horizontal=1;startSize=30;horizontalStack=0;resizeParent=1;resizeParentMax=0;resizeLast=0;collapsible=1;marginBottom=0;whiteSpace=wrap;html=1;" parent="1" vertex="1">
          <mxGeometry x="380" y="1210" width="140" height="360" as="geometry" />
        </mxCell>
        <mxCell id="yXIKE25COpGdXmbMUSow-152" value="Session manage mechanic" style="text;strokeColor=none;fillColor=none;align=left;verticalAlign=middle;spacingLeft=4;spacingRight=4;overflow=hidden;points=[[0,0.5],[1,0.5]];portConstraint=eastwest;rotatable=0;whiteSpace=wrap;html=1;" parent="yXIKE25COpGdXmbMUSow-151" vertex="1">
          <mxGeometry y="30" width="140" height="30" as="geometry" />
        </mxCell>
        <mxCell id="yXIKE25COpGdXmbMUSow-153" value="Cookie flag, scope, duration" style="text;strokeColor=none;fillColor=none;align=left;verticalAlign=middle;spacingLeft=4;spacingRight=4;overflow=hidden;points=[[0,0.5],[1,0.5]];portConstraint=eastwest;rotatable=0;whiteSpace=wrap;html=1;" parent="yXIKE25COpGdXmbMUSow-151" vertex="1">
          <mxGeometry y="60" width="140" height="30" as="geometry" />
        </mxCell>
        <mxCell id="yXIKE25COpGdXmbMUSow-154" value="Session termination" style="text;strokeColor=none;fillColor=none;align=left;verticalAlign=middle;spacingLeft=4;spacingRight=4;overflow=hidden;points=[[0,0.5],[1,0.5]];portConstraint=eastwest;rotatable=0;whiteSpace=wrap;html=1;" parent="yXIKE25COpGdXmbMUSow-151" vertex="1">
          <mxGeometry y="90" width="140" height="20" as="geometry" />
        </mxCell>
        <mxCell id="yXIKE25COpGdXmbMUSow-155" value="&lt;font&gt;Multi simultaneous session&lt;/font&gt;" style="text;strokeColor=none;fillColor=none;align=left;verticalAlign=middle;spacingLeft=4;spacingRight=4;overflow=hidden;points=[[0,0.5],[1,0.5]];portConstraint=eastwest;rotatable=0;whiteSpace=wrap;html=1;" parent="yXIKE25COpGdXmbMUSow-151" vertex="1">
          <mxGeometry y="110" width="140" height="50" as="geometry" />
        </mxCell>
        <mxCell id="yXIKE25COpGdXmbMUSow-159" value="&lt;font&gt;Multi simultaneous session&lt;/font&gt;" style="text;strokeColor=none;fillColor=none;align=left;verticalAlign=middle;spacingLeft=4;spacingRight=4;overflow=hidden;points=[[0,0.5],[1,0.5]];portConstraint=eastwest;rotatable=0;whiteSpace=wrap;html=1;" parent="yXIKE25COpGdXmbMUSow-151" vertex="1">
          <mxGeometry y="160" width="140" height="50" as="geometry" />
        </mxCell>
        <mxCell id="yXIKE25COpGdXmbMUSow-160" value="Shared session across multiple domain ?" style="text;strokeColor=none;fillColor=none;align=left;verticalAlign=middle;spacingLeft=4;spacingRight=4;overflow=hidden;points=[[0,0.5],[1,0.5]];portConstraint=eastwest;rotatable=0;whiteSpace=wrap;html=1;" parent="yXIKE25COpGdXmbMUSow-151" vertex="1">
          <mxGeometry y="210" width="140" height="50" as="geometry" />
        </mxCell>
        <mxCell id="yXIKE25COpGdXmbMUSow-161" value="Session puzzling" style="text;strokeColor=none;fillColor=none;align=left;verticalAlign=middle;spacingLeft=4;spacingRight=4;overflow=hidden;points=[[0,0.5],[1,0.5]];portConstraint=eastwest;rotatable=0;whiteSpace=wrap;html=1;" parent="yXIKE25COpGdXmbMUSow-151" vertex="1">
          <mxGeometry y="260" width="140" height="50" as="geometry" />
        </mxCell>
        <mxCell id="yXIKE25COpGdXmbMUSow-162" value="CSRF and Clickjacking" style="text;strokeColor=none;fillColor=none;align=left;verticalAlign=middle;spacingLeft=4;spacingRight=4;overflow=hidden;points=[[0,0.5],[1,0.5]];portConstraint=eastwest;rotatable=0;whiteSpace=wrap;html=1;" parent="yXIKE25COpGdXmbMUSow-151" vertex="1">
          <mxGeometry y="310" width="140" height="50" as="geometry" />
        </mxCell>
        <mxCell id="yXIKE25COpGdXmbMUSow-163" value="" style="endArrow=classic;html=1;rounded=0;exitX=0;exitY=1;exitDx=0;exitDy=0;entryX=0.5;entryY=0;entryDx=0;entryDy=0;" parent="1" source="yXIKE25COpGdXmbMUSow-100" target="yXIKE25COpGdXmbMUSow-151" edge="1">
          <mxGeometry width="50" height="50" relative="1" as="geometry">
            <mxPoint x="800" y="1270" as="sourcePoint" />
            <mxPoint x="850" y="1220" as="targetPoint" />
          </mxGeometry>
        </mxCell>
        <mxCell id="yXIKE25COpGdXmbMUSow-164" value="Authorization" style="swimlane;fontStyle=0;childLayout=stackLayout;horizontal=1;startSize=30;horizontalStack=0;resizeParent=1;resizeParentMax=0;resizeLast=0;collapsible=1;marginBottom=0;whiteSpace=wrap;html=1;" parent="1" vertex="1">
          <mxGeometry x="870" y="1220" width="140" height="180" as="geometry" />
        </mxCell>
        <mxCell id="yXIKE25COpGdXmbMUSow-165" value="Path traversal" style="text;strokeColor=none;fillColor=none;align=left;verticalAlign=middle;spacingLeft=4;spacingRight=4;overflow=hidden;points=[[0,0.5],[1,0.5]];portConstraint=eastwest;rotatable=0;whiteSpace=wrap;html=1;" parent="yXIKE25COpGdXmbMUSow-164" vertex="1">
          <mxGeometry y="30" width="140" height="30" as="geometry" />
        </mxCell>
        <mxCell id="yXIKE25COpGdXmbMUSow-166" value="Bypass authorization schema" style="text;strokeColor=none;fillColor=none;align=left;verticalAlign=middle;spacingLeft=4;spacingRight=4;overflow=hidden;points=[[0,0.5],[1,0.5]];portConstraint=eastwest;rotatable=0;whiteSpace=wrap;html=1;" parent="yXIKE25COpGdXmbMUSow-164" vertex="1">
          <mxGeometry y="60" width="140" height="30" as="geometry" />
        </mxCell>
        <mxCell id="yXIKE25COpGdXmbMUSow-167" value="Vertical Access control broken (PrivEsc)" style="text;strokeColor=none;fillColor=none;align=left;verticalAlign=middle;spacingLeft=4;spacingRight=4;overflow=hidden;points=[[0,0.5],[1,0.5]];portConstraint=eastwest;rotatable=0;whiteSpace=wrap;html=1;" parent="yXIKE25COpGdXmbMUSow-164" vertex="1">
          <mxGeometry y="90" width="140" height="30" as="geometry" />
        </mxCell>
        <mxCell id="yXIKE25COpGdXmbMUSow-168" value="Horizontal Access broken (same role)" style="text;strokeColor=none;fillColor=none;align=left;verticalAlign=middle;spacingLeft=4;spacingRight=4;overflow=hidden;points=[[0,0.5],[1,0.5]];portConstraint=eastwest;rotatable=0;whiteSpace=wrap;html=1;" parent="yXIKE25COpGdXmbMUSow-164" vertex="1">
          <mxGeometry y="120" width="140" height="30" as="geometry" />
        </mxCell>
        <mxCell id="yXIKE25COpGdXmbMUSow-169" value="Missing authz" style="text;strokeColor=none;fillColor=none;align=left;verticalAlign=middle;spacingLeft=4;spacingRight=4;overflow=hidden;points=[[0,0.5],[1,0.5]];portConstraint=eastwest;rotatable=0;whiteSpace=wrap;html=1;" parent="yXIKE25COpGdXmbMUSow-164" vertex="1">
          <mxGeometry y="150" width="140" height="30" as="geometry" />
        </mxCell>
        <mxCell id="yXIKE25COpGdXmbMUSow-170" value="" style="endArrow=classic;html=1;rounded=0;exitX=1;exitY=1;exitDx=0;exitDy=0;entryX=0.5;entryY=0;entryDx=0;entryDy=0;" parent="1" source="yXIKE25COpGdXmbMUSow-100" target="yXIKE25COpGdXmbMUSow-164" edge="1">
          <mxGeometry width="50" height="50" relative="1" as="geometry">
            <mxPoint x="800" y="1280" as="sourcePoint" />
            <mxPoint x="850" y="1230" as="targetPoint" />
          </mxGeometry>
        </mxCell>
        <mxCell id="yXIKE25COpGdXmbMUSow-171" value="Injection/ Input validation" style="swimlane;fontStyle=0;childLayout=stackLayout;horizontal=1;startSize=30;horizontalStack=0;resizeParent=1;resizeParentMax=0;resizeLast=0;collapsible=1;marginBottom=0;whiteSpace=wrap;html=1;" parent="1" vertex="1">
          <mxGeometry x="570" y="1200" width="140" height="870" as="geometry" />
        </mxCell>
        <mxCell id="yXIKE25COpGdXmbMUSow-172" value="XSS" style="text;strokeColor=none;fillColor=none;align=left;verticalAlign=middle;spacingLeft=4;spacingRight=4;overflow=hidden;points=[[0,0.5],[1,0.5]];portConstraint=eastwest;rotatable=0;whiteSpace=wrap;html=1;" parent="yXIKE25COpGdXmbMUSow-171" vertex="1">
          <mxGeometry y="30" width="140" height="30" as="geometry" />
        </mxCell>
        <mxCell id="yXIKE25COpGdXmbMUSow-173" value="Crossite Flashing" style="text;strokeColor=none;fillColor=none;align=left;verticalAlign=middle;spacingLeft=4;spacingRight=4;overflow=hidden;points=[[0,0.5],[1,0.5]];portConstraint=eastwest;rotatable=0;whiteSpace=wrap;html=1;" parent="yXIKE25COpGdXmbMUSow-171" vertex="1">
          <mxGeometry y="60" width="140" height="30" as="geometry" />
        </mxCell>
        <mxCell id="yXIKE25COpGdXmbMUSow-174" value="HTML" style="text;strokeColor=none;fillColor=none;align=left;verticalAlign=middle;spacingLeft=4;spacingRight=4;overflow=hidden;points=[[0,0.5],[1,0.5]];portConstraint=eastwest;rotatable=0;whiteSpace=wrap;html=1;" parent="yXIKE25COpGdXmbMUSow-171" vertex="1">
          <mxGeometry y="90" width="140" height="30" as="geometry" />
        </mxCell>
        <mxCell id="yXIKE25COpGdXmbMUSow-177" value="SQL" style="text;strokeColor=none;fillColor=none;align=left;verticalAlign=middle;spacingLeft=4;spacingRight=4;overflow=hidden;points=[[0,0.5],[1,0.5]];portConstraint=eastwest;rotatable=0;whiteSpace=wrap;html=1;" parent="yXIKE25COpGdXmbMUSow-171" vertex="1">
          <mxGeometry y="120" width="140" height="30" as="geometry" />
        </mxCell>
        <mxCell id="yXIKE25COpGdXmbMUSow-178" value="LDAP" style="text;strokeColor=none;fillColor=none;align=left;verticalAlign=middle;spacingLeft=4;spacingRight=4;overflow=hidden;points=[[0,0.5],[1,0.5]];portConstraint=eastwest;rotatable=0;whiteSpace=wrap;html=1;" parent="yXIKE25COpGdXmbMUSow-171" vertex="1">
          <mxGeometry y="150" width="140" height="30" as="geometry" />
        </mxCell>
        <mxCell id="yXIKE25COpGdXmbMUSow-179" value="ORM" style="text;strokeColor=none;fillColor=none;align=left;verticalAlign=middle;spacingLeft=4;spacingRight=4;overflow=hidden;points=[[0,0.5],[1,0.5]];portConstraint=eastwest;rotatable=0;whiteSpace=wrap;html=1;" parent="yXIKE25COpGdXmbMUSow-171" vertex="1">
          <mxGeometry y="180" width="140" height="30" as="geometry" />
        </mxCell>
        <mxCell id="yXIKE25COpGdXmbMUSow-180" value="XML/XPath/XQuery" style="text;strokeColor=none;fillColor=none;align=left;verticalAlign=middle;spacingLeft=4;spacingRight=4;overflow=hidden;points=[[0,0.5],[1,0.5]];portConstraint=eastwest;rotatable=0;whiteSpace=wrap;html=1;" parent="yXIKE25COpGdXmbMUSow-171" vertex="1">
          <mxGeometry y="210" width="140" height="30" as="geometry" />
        </mxCell>
        <mxCell id="yXIKE25COpGdXmbMUSow-181" value="XXE" style="text;strokeColor=none;fillColor=none;align=left;verticalAlign=middle;spacingLeft=4;spacingRight=4;overflow=hidden;points=[[0,0.5],[1,0.5]];portConstraint=eastwest;rotatable=0;whiteSpace=wrap;html=1;" parent="yXIKE25COpGdXmbMUSow-171" vertex="1">
          <mxGeometry y="240" width="140" height="30" as="geometry" />
        </mxCell>
        <mxCell id="yXIKE25COpGdXmbMUSow-182" value="SSI" style="text;strokeColor=none;fillColor=none;align=left;verticalAlign=middle;spacingLeft=4;spacingRight=4;overflow=hidden;points=[[0,0.5],[1,0.5]];portConstraint=eastwest;rotatable=0;whiteSpace=wrap;html=1;" parent="yXIKE25COpGdXmbMUSow-171" vertex="1">
          <mxGeometry y="270" width="140" height="30" as="geometry" />
        </mxCell>
        <mxCell id="yXIKE25COpGdXmbMUSow-183" value="IMAP/SMTP" style="text;strokeColor=none;fillColor=none;align=left;verticalAlign=middle;spacingLeft=4;spacingRight=4;overflow=hidden;points=[[0,0.5],[1,0.5]];portConstraint=eastwest;rotatable=0;whiteSpace=wrap;html=1;" parent="yXIKE25COpGdXmbMUSow-171" vertex="1">
          <mxGeometry y="300" width="140" height="30" as="geometry" />
        </mxCell>
        <mxCell id="yXIKE25COpGdXmbMUSow-184" value="CRLF" style="text;strokeColor=none;fillColor=none;align=left;verticalAlign=middle;spacingLeft=4;spacingRight=4;overflow=hidden;points=[[0,0.5],[1,0.5]];portConstraint=eastwest;rotatable=0;whiteSpace=wrap;html=1;" parent="yXIKE25COpGdXmbMUSow-171" vertex="1">
          <mxGeometry y="330" width="140" height="30" as="geometry" />
        </mxCell>
        <mxCell id="yXIKE25COpGdXmbMUSow-185" value="Code" style="text;strokeColor=none;fillColor=none;align=left;verticalAlign=middle;spacingLeft=4;spacingRight=4;overflow=hidden;points=[[0,0.5],[1,0.5]];portConstraint=eastwest;rotatable=0;whiteSpace=wrap;html=1;" parent="yXIKE25COpGdXmbMUSow-171" vertex="1">
          <mxGeometry y="360" width="140" height="30" as="geometry" />
        </mxCell>
        <mxCell id="yXIKE25COpGdXmbMUSow-186" value="Command" style="text;strokeColor=none;fillColor=none;align=left;verticalAlign=middle;spacingLeft=4;spacingRight=4;overflow=hidden;points=[[0,0.5],[1,0.5]];portConstraint=eastwest;rotatable=0;whiteSpace=wrap;html=1;" parent="yXIKE25COpGdXmbMUSow-171" vertex="1">
          <mxGeometry y="390" width="140" height="30" as="geometry" />
        </mxCell>
        <mxCell id="yXIKE25COpGdXmbMUSow-188" value="Expression Language" style="text;strokeColor=none;fillColor=none;align=left;verticalAlign=middle;spacingLeft=4;spacingRight=4;overflow=hidden;points=[[0,0.5],[1,0.5]];portConstraint=eastwest;rotatable=0;whiteSpace=wrap;html=1;" parent="yXIKE25COpGdXmbMUSow-171" vertex="1">
          <mxGeometry y="420" width="140" height="30" as="geometry" />
        </mxCell>
        <mxCell id="yXIKE25COpGdXmbMUSow-189" value="Overflow" style="text;strokeColor=none;fillColor=none;align=left;verticalAlign=middle;spacingLeft=4;spacingRight=4;overflow=hidden;points=[[0,0.5],[1,0.5]];portConstraint=eastwest;rotatable=0;whiteSpace=wrap;html=1;" parent="yXIKE25COpGdXmbMUSow-171" vertex="1">
          <mxGeometry y="450" width="140" height="30" as="geometry" />
        </mxCell>
        <mxCell id="yXIKE25COpGdXmbMUSow-190" value="FormatString" style="text;strokeColor=none;fillColor=none;align=left;verticalAlign=middle;spacingLeft=4;spacingRight=4;overflow=hidden;points=[[0,0.5],[1,0.5]];portConstraint=eastwest;rotatable=0;whiteSpace=wrap;html=1;" parent="yXIKE25COpGdXmbMUSow-171" vertex="1">
          <mxGeometry y="480" width="140" height="30" as="geometry" />
        </mxCell>
        <mxCell id="yXIKE25COpGdXmbMUSow-191" value="Incubated" style="text;strokeColor=none;fillColor=none;align=left;verticalAlign=middle;spacingLeft=4;spacingRight=4;overflow=hidden;points=[[0,0.5],[1,0.5]];portConstraint=eastwest;rotatable=0;whiteSpace=wrap;html=1;" parent="yXIKE25COpGdXmbMUSow-171" vertex="1">
          <mxGeometry y="510" width="140" height="30" as="geometry" />
        </mxCell>
        <mxCell id="yXIKE25COpGdXmbMUSow-192" value="HTTP smuggling" style="text;strokeColor=none;fillColor=none;align=left;verticalAlign=middle;spacingLeft=4;spacingRight=4;overflow=hidden;points=[[0,0.5],[1,0.5]];portConstraint=eastwest;rotatable=0;whiteSpace=wrap;html=1;" parent="yXIKE25COpGdXmbMUSow-171" vertex="1">
          <mxGeometry y="540" width="140" height="30" as="geometry" />
        </mxCell>
        <mxCell id="yXIKE25COpGdXmbMUSow-193" value="Verb Tampering" style="text;strokeColor=none;fillColor=none;align=left;verticalAlign=middle;spacingLeft=4;spacingRight=4;overflow=hidden;points=[[0,0.5],[1,0.5]];portConstraint=eastwest;rotatable=0;whiteSpace=wrap;html=1;" parent="yXIKE25COpGdXmbMUSow-171" vertex="1">
          <mxGeometry y="570" width="140" height="30" as="geometry" />
        </mxCell>
        <mxCell id="yXIKE25COpGdXmbMUSow-194" value="Open Redirect" style="text;strokeColor=none;fillColor=none;align=left;verticalAlign=middle;spacingLeft=4;spacingRight=4;overflow=hidden;points=[[0,0.5],[1,0.5]];portConstraint=eastwest;rotatable=0;whiteSpace=wrap;html=1;" parent="yXIKE25COpGdXmbMUSow-171" vertex="1">
          <mxGeometry y="600" width="140" height="30" as="geometry" />
        </mxCell>
        <mxCell id="yXIKE25COpGdXmbMUSow-195" value="LFI" style="text;strokeColor=none;fillColor=none;align=left;verticalAlign=middle;spacingLeft=4;spacingRight=4;overflow=hidden;points=[[0,0.5],[1,0.5]];portConstraint=eastwest;rotatable=0;whiteSpace=wrap;html=1;" parent="yXIKE25COpGdXmbMUSow-171" vertex="1">
          <mxGeometry y="630" width="140" height="30" as="geometry" />
        </mxCell>
        <mxCell id="yXIKE25COpGdXmbMUSow-196" value="RFI" style="text;strokeColor=none;fillColor=none;align=left;verticalAlign=middle;spacingLeft=4;spacingRight=4;overflow=hidden;points=[[0,0.5],[1,0.5]];portConstraint=eastwest;rotatable=0;whiteSpace=wrap;html=1;" parent="yXIKE25COpGdXmbMUSow-171" vertex="1">
          <mxGeometry y="660" width="140" height="30" as="geometry" />
        </mxCell>
        <mxCell id="yXIKE25COpGdXmbMUSow-197" value="Discretion from client side and serverside" style="text;strokeColor=none;fillColor=none;align=left;verticalAlign=middle;spacingLeft=4;spacingRight=4;overflow=hidden;points=[[0,0.5],[1,0.5]];portConstraint=eastwest;rotatable=0;whiteSpace=wrap;html=1;" parent="yXIKE25COpGdXmbMUSow-171" vertex="1">
          <mxGeometry y="690" width="140" height="30" as="geometry" />
        </mxCell>
        <mxCell id="yXIKE25COpGdXmbMUSow-198" value="NoSQL" style="text;strokeColor=none;fillColor=none;align=left;verticalAlign=middle;spacingLeft=4;spacingRight=4;overflow=hidden;points=[[0,0.5],[1,0.5]];portConstraint=eastwest;rotatable=0;whiteSpace=wrap;html=1;" parent="yXIKE25COpGdXmbMUSow-171" vertex="1">
          <mxGeometry y="720" width="140" height="30" as="geometry" />
        </mxCell>
        <mxCell id="yXIKE25COpGdXmbMUSow-199" value="Paramter pollution" style="text;strokeColor=none;fillColor=none;align=left;verticalAlign=middle;spacingLeft=4;spacingRight=4;overflow=hidden;points=[[0,0.5],[1,0.5]];portConstraint=eastwest;rotatable=0;whiteSpace=wrap;html=1;" parent="yXIKE25COpGdXmbMUSow-171" vertex="1">
          <mxGeometry y="750" width="140" height="30" as="geometry" />
        </mxCell>
        <mxCell id="yXIKE25COpGdXmbMUSow-200" value="Autobinding" style="text;strokeColor=none;fillColor=none;align=left;verticalAlign=middle;spacingLeft=4;spacingRight=4;overflow=hidden;points=[[0,0.5],[1,0.5]];portConstraint=eastwest;rotatable=0;whiteSpace=wrap;html=1;" parent="yXIKE25COpGdXmbMUSow-171" vertex="1">
          <mxGeometry y="780" width="140" height="30" as="geometry" />
        </mxCell>
        <mxCell id="yXIKE25COpGdXmbMUSow-201" value="Mass Assignment" style="text;strokeColor=none;fillColor=none;align=left;verticalAlign=middle;spacingLeft=4;spacingRight=4;overflow=hidden;points=[[0,0.5],[1,0.5]];portConstraint=eastwest;rotatable=0;whiteSpace=wrap;html=1;" parent="yXIKE25COpGdXmbMUSow-171" vertex="1">
          <mxGeometry y="810" width="140" height="30" as="geometry" />
        </mxCell>
        <mxCell id="yXIKE25COpGdXmbMUSow-202" value="Invalid Session Cookies" style="text;strokeColor=none;fillColor=none;align=left;verticalAlign=middle;spacingLeft=4;spacingRight=4;overflow=hidden;points=[[0,0.5],[1,0.5]];portConstraint=eastwest;rotatable=0;whiteSpace=wrap;html=1;" parent="yXIKE25COpGdXmbMUSow-171" vertex="1">
          <mxGeometry y="840" width="140" height="30" as="geometry" />
        </mxCell>
        <mxCell id="yXIKE25COpGdXmbMUSow-203" value="" style="endArrow=classic;html=1;rounded=0;exitX=0.75;exitY=1;exitDx=0;exitDy=0;entryX=0.5;entryY=0;entryDx=0;entryDy=0;" parent="1" source="yXIKE25COpGdXmbMUSow-100" target="yXIKE25COpGdXmbMUSow-171" edge="1">
          <mxGeometry width="50" height="50" relative="1" as="geometry">
            <mxPoint x="800" y="1020" as="sourcePoint" />
            <mxPoint x="850" y="970" as="targetPoint" />
          </mxGeometry>
        </mxCell>
        <mxCell id="yXIKE25COpGdXmbMUSow-204" value="DOS/Bussiness Login/ Cryptography" style="rounded=0;whiteSpace=wrap;html=1;" parent="1" vertex="1">
          <mxGeometry x="730" y="1200" width="120" height="60" as="geometry" />
        </mxCell>
        <mxCell id="yXIKE25COpGdXmbMUSow-205" value="" style="endArrow=classic;html=1;rounded=0;exitX=0.75;exitY=1;exitDx=0;exitDy=0;entryX=0.5;entryY=0;entryDx=0;entryDy=0;" parent="1" source="yXIKE25COpGdXmbMUSow-100" target="yXIKE25COpGdXmbMUSow-204" edge="1">
          <mxGeometry width="50" height="50" relative="1" as="geometry">
            <mxPoint x="800" y="1380" as="sourcePoint" />
            <mxPoint x="850" y="1330" as="targetPoint" />
          </mxGeometry>
        </mxCell>
        <mxCell id="yXIKE25COpGdXmbMUSow-206" value="Risky Function" style="rounded=0;whiteSpace=wrap;html=1;" parent="1" vertex="1">
          <mxGeometry x="410" y="860" width="120" height="60" as="geometry" />
        </mxCell>
        <mxCell id="yXIKE25COpGdXmbMUSow-207" value="" style="endArrow=classic;html=1;rounded=0;exitX=0;exitY=0;exitDx=0;exitDy=0;entryX=0.5;entryY=1;entryDx=0;entryDy=0;" parent="1" source="yXIKE25COpGdXmbMUSow-100" target="yXIKE25COpGdXmbMUSow-206" edge="1">
          <mxGeometry width="50" height="50" relative="1" as="geometry">
            <mxPoint x="800" y="1020" as="sourcePoint" />
            <mxPoint x="850" y="970" as="targetPoint" />
          </mxGeometry>
        </mxCell>
        <mxCell id="yXIKE25COpGdXmbMUSow-14" value="Native runtime of Programming language or framework" style="rounded=0;whiteSpace=wrap;html=1;" parent="1" vertex="1">
          <mxGeometry x="470" y="-730" width="120" height="60" as="geometry" />
        </mxCell>
        <mxCell id="yXIKE25COpGdXmbMUSow-19" value="" style="endArrow=classic;html=1;rounded=0;exitX=1;exitY=0.5;exitDx=0;exitDy=0;entryX=0;entryY=0.5;entryDx=0;entryDy=0;" parent="1" source="yXIKE25COpGdXmbMUSow-9" target="yXIKE25COpGdXmbMUSow-14" edge="1">
          <mxGeometry width="50" height="50" relative="1" as="geometry">
            <mxPoint x="550" y="-350" as="sourcePoint" />
            <mxPoint x="600" y="-400" as="targetPoint" />
          </mxGeometry>
        </mxCell>
        <mxCell id="-xXvxsQIStdXX-Fdz6FR-10" value="" style="endArrow=classic;html=1;rounded=0;exitX=1;exitY=0.5;exitDx=0;exitDy=0;" edge="1" parent="1" source="yXIKE25COpGdXmbMUSow-25">
          <mxGeometry width="50" height="50" relative="1" as="geometry">
            <mxPoint x="600" y="-560" as="sourcePoint" />
            <mxPoint x="520" y="-890" as="targetPoint" />
          </mxGeometry>
        </mxCell>
        <mxCell id="-xXvxsQIStdXX-Fdz6FR-11" value="General idea of what the main purpose of the Web Application and the main function it have, How to use. Become the power user of the Application" style="rounded=0;whiteSpace=wrap;html=1;" vertex="1" parent="1">
          <mxGeometry x="520" y="-920" width="140" height="90" as="geometry" />
        </mxCell>
        <mxCell id="-xXvxsQIStdXX-Fdz6FR-12" value="" style="endArrow=classic;html=1;rounded=0;" edge="1" parent="1" target="-xXvxsQIStdXX-Fdz6FR-13">
          <mxGeometry width="50" height="50" relative="1" as="geometry">
            <mxPoint x="470" y="360" as="sourcePoint" />
            <mxPoint x="-60" y="360" as="targetPoint" />
          </mxGeometry>
        </mxCell>
        <mxCell id="-xXvxsQIStdXX-Fdz6FR-20" style="edgeStyle=orthogonalEdgeStyle;rounded=0;orthogonalLoop=1;jettySize=auto;html=1;entryX=1;entryY=0.5;entryDx=0;entryDy=0;" edge="1" parent="1" source="-xXvxsQIStdXX-Fdz6FR-13" target="-xXvxsQIStdXX-Fdz6FR-19">
          <mxGeometry relative="1" as="geometry" />
        </mxCell>
        <mxCell id="-xXvxsQIStdXX-Fdz6FR-13" value="To do" style="swimlane;fontStyle=0;childLayout=stackLayout;horizontal=1;startSize=30;horizontalStack=0;resizeParent=1;resizeParentMax=0;resizeLast=0;collapsible=1;marginBottom=0;whiteSpace=wrap;html=1;" vertex="1" parent="1">
          <mxGeometry x="-430" y="180" width="140" height="360" as="geometry" />
        </mxCell>
        <mxCell id="-xXvxsQIStdXX-Fdz6FR-14" value="Scanning open port, service scan, script scan&lt;div&gt;&lt;br&gt;&lt;/div&gt;" style="text;strokeColor=none;fillColor=none;align=left;verticalAlign=middle;spacingLeft=4;spacingRight=4;overflow=hidden;points=[[0,0.5],[1,0.5]];portConstraint=eastwest;rotatable=0;whiteSpace=wrap;html=1;" vertex="1" parent="-xXvxsQIStdXX-Fdz6FR-13">
          <mxGeometry y="30" width="140" height="50" as="geometry" />
        </mxCell>
        <mxCell id="-xXvxsQIStdXX-Fdz6FR-18" value="Get the general idea what the main purpose of the host" style="text;strokeColor=none;fillColor=none;align=left;verticalAlign=middle;spacingLeft=4;spacingRight=4;overflow=hidden;points=[[0,0.5],[1,0.5]];portConstraint=eastwest;rotatable=0;whiteSpace=wrap;html=1;" vertex="1" parent="-xXvxsQIStdXX-Fdz6FR-13">
          <mxGeometry y="80" width="140" height="50" as="geometry" />
        </mxCell>
        <mxCell id="-xXvxsQIStdXX-Fdz6FR-15" value="Checking version of application run behind the port to serve the network service&lt;div&gt;&lt;br&gt;&lt;/div&gt;" style="text;strokeColor=none;fillColor=none;align=left;verticalAlign=middle;spacingLeft=4;spacingRight=4;overflow=hidden;points=[[0,0.5],[1,0.5]];portConstraint=eastwest;rotatable=0;whiteSpace=wrap;html=1;" vertex="1" parent="-xXvxsQIStdXX-Fdz6FR-13">
          <mxGeometry y="130" width="140" height="60" as="geometry" />
        </mxCell>
        <mxCell id="-xXvxsQIStdXX-Fdz6FR-16" value="Checking for CVE" style="text;strokeColor=none;fillColor=none;align=left;verticalAlign=middle;spacingLeft=4;spacingRight=4;overflow=hidden;points=[[0,0.5],[1,0.5]];portConstraint=eastwest;rotatable=0;whiteSpace=wrap;html=1;" vertex="1" parent="-xXvxsQIStdXX-Fdz6FR-13">
          <mxGeometry y="190" width="140" height="30" as="geometry" />
        </mxCell>
        <mxCell id="-xXvxsQIStdXX-Fdz6FR-17" value="Checking for common misconfiguration for each services" style="text;strokeColor=none;fillColor=none;align=left;verticalAlign=middle;spacingLeft=4;spacingRight=4;overflow=hidden;points=[[0,0.5],[1,0.5]];portConstraint=eastwest;rotatable=0;whiteSpace=wrap;html=1;" vertex="1" parent="-xXvxsQIStdXX-Fdz6FR-13">
          <mxGeometry y="220" width="140" height="70" as="geometry" />
        </mxCell>
        <mxCell id="-xXvxsQIStdXX-Fdz6FR-25" value="Default credentials for services need authentication/ short wordlist attack" style="text;strokeColor=none;fillColor=none;align=left;verticalAlign=middle;spacingLeft=4;spacingRight=4;overflow=hidden;points=[[0,0.5],[1,0.5]];portConstraint=eastwest;rotatable=0;whiteSpace=wrap;html=1;" vertex="1" parent="-xXvxsQIStdXX-Fdz6FR-13">
          <mxGeometry y="290" width="140" height="70" as="geometry" />
        </mxCell>
        <mxCell id="-xXvxsQIStdXX-Fdz6FR-22" value="True" style="edgeStyle=orthogonalEdgeStyle;rounded=0;orthogonalLoop=1;jettySize=auto;html=1;" edge="1" parent="1" source="-xXvxsQIStdXX-Fdz6FR-19" target="-xXvxsQIStdXX-Fdz6FR-21">
          <mxGeometry relative="1" as="geometry" />
        </mxCell>
        <mxCell id="-xXvxsQIStdXX-Fdz6FR-24" value="False" style="edgeStyle=orthogonalEdgeStyle;rounded=0;orthogonalLoop=1;jettySize=auto;html=1;" edge="1" parent="1" source="-xXvxsQIStdXX-Fdz6FR-19" target="-xXvxsQIStdXX-Fdz6FR-23">
          <mxGeometry relative="1" as="geometry" />
        </mxCell>
        <mxCell id="-xXvxsQIStdXX-Fdz6FR-19" value="Is the a member of AD" style="rhombus;whiteSpace=wrap;html=1;" vertex="1" parent="1">
          <mxGeometry x="-770" y="320" width="160" height="80" as="geometry" />
        </mxCell>
        <mxCell id="-xXvxsQIStdXX-Fdz6FR-21" value="Perfrom AD Map from&amp;nbsp;https://github.com/esidate/pentesting-active-directory" style="whiteSpace=wrap;html=1;" vertex="1" parent="1">
          <mxGeometry x="-755" y="100" width="130" height="130" as="geometry" />
        </mxCell>
        <mxCell id="-xXvxsQIStdXX-Fdz6FR-23" value="Nothing" style="whiteSpace=wrap;html=1;" vertex="1" parent="1">
          <mxGeometry x="-750" y="490" width="120" height="60" as="geometry" />
        </mxCell>
        <mxCell id="-xXvxsQIStdXX-Fdz6FR-27" value="Detect using detection wordlist for each vuln" style="rounded=0;whiteSpace=wrap;html=1;" vertex="1" parent="1">
          <mxGeometry x="710" y="1605" width="120" height="60" as="geometry" />
        </mxCell>
      </root>
    </mxGraphModel>
  </diagram>
</mxfile>
